<svg xmlns="http://www.w3.org/2000/svg" width="162" height="12" viewBox="0 0 162 12">
    <g fill="#1C1C1B" fill-rule="nonzero">
        <path d="M.908 11.554a.855.855 0 0 1-.638-.27.855.855 0 0 1-.27-.638V1.454c0-.247.087-.46.262-.639A.915.915 0 0 1 .9.545L4.131.53c.964 0 1.78.308 2.447.924.661.615.992 1.37.992 2.261 0 .862-.316 1.608-.947 2.239.76.625 1.139 1.418 1.139 2.376 0 .888-.339 1.647-1.016 2.277-.672.631-1.482.947-2.43.947H.907zm.907-6.4h2.323c.436 0 .816-.141 1.139-.424.317-.287.477-.625.477-1.015 0-.385-.157-.708-.47-.97-.313-.266-.695-.4-1.146-.4l-2.323.017v2.792zm0 4.584h2.5c.451 0 .836-.138 1.154-.415.317-.272.477-.602.477-.992 0-.379-.157-.7-.47-.961-.313-.267-.695-.4-1.146-.4H1.815v2.768zM16.23 11.554c-1.523 0-2.823-.54-3.9-1.623-1.082-1.077-1.623-2.377-1.623-3.9 0-1.523.541-2.825 1.623-3.908 1.077-1.077 2.377-1.615 3.9-1.615 1.524 0 2.826.538 3.908 1.615 1.077 1.083 1.616 2.385 1.616 3.908 0 1.523-.539 2.823-1.616 3.9-1.082 1.082-2.384 1.623-3.908 1.623zm0-9.23c-1.02 0-1.892.36-2.615 1.084-.728.728-1.092 1.602-1.092 2.623 0 1.021.364 1.892 1.092 2.615.723.728 1.595 1.092 2.615 1.092 1.02 0 1.896-.364 2.624-1.092a3.565 3.565 0 0 0 1.084-2.615c0-1.02-.361-1.895-1.084-2.623-.728-.723-1.603-1.085-2.624-1.085zM30.238 11.554c-1.524 0-2.824-.54-3.9-1.623-1.083-1.077-1.624-2.377-1.624-3.9 0-1.523.541-2.825 1.624-3.908 1.076-1.077 2.376-1.615 3.9-1.615 1.523 0 2.825.538 3.908 1.615 1.076 1.083 1.615 2.385 1.615 3.908 0 1.523-.539 2.823-1.615 3.9-1.083 1.082-2.385 1.623-3.908 1.623zm0-9.23c-1.021 0-1.892.36-2.616 1.084-.728.728-1.092 1.602-1.092 2.623 0 1.021.364 1.892 1.092 2.615.724.728 1.596 1.092 2.616 1.092s1.895-.364 2.623-1.092a3.565 3.565 0 0 0 1.085-2.615c0-1.02-.362-1.895-1.085-2.623-.728-.723-1.603-1.085-2.623-1.085zM40.322 11.485a.87.87 0 0 1-.639-.27.86.86 0 0 1-.261-.63v-9.14a.86.86 0 0 1 .261-.63c.18-.18.392-.27.639-.27.246 0 .459.09.638.27a.86.86 0 0 1 .262.63v4.047l4.4-4.623a.887.887 0 0 1 1.27-.031.85.85 0 0 1 .276.623.843.843 0 0 1-.246.646L43.23 5.992l3.838 4.038c.17.185.251.4.246.647a.875.875 0 0 1-.276.631.88.88 0 0 1-.624.246.875.875 0 0 1-.653-.276L41.984 7.3l-.762.808v2.477a.858.858 0 0 1-.261.63.875.875 0 0 1-.64.269zM56.49 1.438c0-.25.09-.466.27-.646.178-.18.394-.27.646-.27.25 0 .464.09.638.27.18.18.27.395.27.646v6.77c0 .923-.326 1.713-.977 2.37a3.244 3.244 0 0 1-2.37.976.855.855 0 0 1-.638-.27.858.858 0 0 1-.27-.638c0-.25.09-.466.27-.646a.858.858 0 0 1 .638-.27c.421 0 .78-.148 1.077-.446.298-.298.446-.657.446-1.077V1.438zM67.08 11.554c-1.522 0-2.822-.54-3.9-1.623-1.082-1.077-1.622-2.377-1.622-3.9 0-1.523.54-2.825 1.623-3.908 1.077-1.077 2.377-1.615 3.9-1.615 1.523 0 2.825.538 3.908 1.615 1.077 1.083 1.615 2.385 1.615 3.908 0 1.523-.538 2.823-1.615 3.9-1.083 1.082-2.385 1.623-3.908 1.623zm0-9.23c-1.02 0-1.891.36-2.614 1.084-.728.728-1.092 1.602-1.092 2.623 0 1.021.364 1.892 1.092 2.615.723.728 1.595 1.092 2.615 1.092 1.02 0 1.895-.364 2.623-1.092a3.565 3.565 0 0 0 1.085-2.615c0-1.02-.362-1.895-1.085-2.623-.728-.723-1.602-1.085-2.623-1.085zM83.058.523c.246 0 .456.087.63.262a.86.86 0 0 1 .262.631v6.2c0 1.087-.385 2.015-1.154 2.785-.769.77-1.695 1.153-2.777 1.153-1.087 0-2.015-.384-2.785-1.153a3.793 3.793 0 0 1-1.153-2.785v-6.2a.86.86 0 0 1 .261-.631.86.86 0 0 1 .632-.262.86.86 0 0 1 .63.262.86.86 0 0 1 .262.631v6.2c0 .595.21 1.102.63 1.523.422.421.929.63 1.524.63.59 0 1.095-.21 1.515-.63.421-.42.63-.928.63-1.523v-6.2a.86.86 0 0 1 .262-.631.86.86 0 0 1 .63-.262zM95.48 3.715c0 .677-.21 1.29-.631 1.839a3.296 3.296 0 0 1-1.6 1.161l1.746 3.539c.108.22.121.448.039.684a.864.864 0 0 1-.454.524.912.912 0 0 1-.4.092c-.374 0-.643-.17-.808-.508l-2.038-4.132h-1.562v3.67a.87.87 0 0 1-.27.638.869.869 0 0 1-.638.262.884.884 0 0 1-.638-.262.884.884 0 0 1-.262-.638V1.415c0-.251.087-.464.262-.638.179-.18.392-.27.638-.27h3.185c.949 0 1.757.313 2.423.939.672.626 1.008 1.382 1.008 2.27zm-3.37 1.393c.43-.015.8-.157 1.108-.423.303-.272.454-.595.454-.97 0-.39-.16-.72-.477-.992a1.704 1.704 0 0 0-1.146-.408h-2.277v2.793h2.338zM106.418 11.208h-.008V11.2l-5.532-7.116v6.562c0 .25-.09.464-.27.638a.858.858 0 0 1-.638.27.855.855 0 0 1-.638-.27.858.858 0 0 1-.27-.638V1.43c0-.195.056-.37.17-.523a.866.866 0 0 1 .446-.33.851.851 0 0 1 .554-.015.88.88 0 0 1 .454.315L106.218 8V1.43c0-.25.087-.464.261-.638.18-.18.395-.27.647-.27.25 0 .464.09.638.27.18.174.27.387.27.638v9.232c0 .01-.003.025-.008.046v.038c0 .01-.003.026-.008.047a.1.1 0 0 1-.008.046l-.008.039a.118.118 0 0 1-.016.046.134.134 0 0 1-.015.038.24.24 0 0 1-.015.047l-.015.038-.023.039-.024.046-.023.023a.33.33 0 0 1-.03.047l-.023.03-.03.03c-.016.021-.026.03-.031.03 0 .006-.01.016-.03.031a.152.152 0 0 1-.039.03c.015-.01.013-.007-.008.009l-.008.008c-.04.03-.08.056-.115.076h-.008c-.041.021-.083.039-.123.054a.535.535 0 0 1-.146.038l-.023.008c-.047.005-.09.008-.13.008a.653.653 0 0 1-.1-.008 1.003 1.003 0 0 1-.092-.015c.004.005-.005.003-.031-.008a.531.531 0 0 1-.062-.015c-.004 0-.015-.005-.03-.015a.163.163 0 0 1-.062-.023c-.01 0-.02-.005-.03-.016a.518.518 0 0 0-.054-.023.187.187 0 0 1-.03-.023 1.302 1.302 0 0 1-.154-.123l-.008-.008v-.008l-.03-.03s-.011-.011-.026-.031zM112.133 11.485a.89.89 0 0 1-.492-.492.902.902 0 0 1 0-.692l.977-2.347v-.008l2.83-6.83a.573.573 0 0 1 .038-.078l.016-.038a.412.412 0 0 1 .03-.038c0-.005.008-.018.023-.039l.03-.03c0-.005.009-.015.024-.03.02-.021.03-.034.03-.039a.25.25 0 0 1 .03-.023c.021-.021.034-.03.039-.03-.005 0 .005-.009.03-.024a.412.412 0 0 0 .039-.03l.03-.023a1.211 1.211 0 0 1 .1-.046c.026-.016.034-.022.023-.016l.03-.015a.228.228 0 0 0 .054-.015.296.296 0 0 0 .054-.016l.03-.008c.01 0 .028-.002.054-.008l.038-.008h.178l.046.008.039.008c.01 0 .028.005.053.016.03.004.041.008.03.008a.6.6 0 0 1 .17.07c-.004-.006.005 0 .03.014l.047.03.03.024.039.03c.005 0 .015.008.03.024a.152.152 0 0 0 .039.03c0 .005.008.015.023.03.02.021.03.034.03.039l.024.03c.02.021.03.034.03.039 0 .004.008.017.023.038a.573.573 0 0 1 .062.115l2.831 6.831v.008l.977 2.347a.902.902 0 0 1 0 .692.892.892 0 0 1-.492.492.902.902 0 0 1-.347.07c-.404 0-.684-.188-.838-.562l-.738-1.785h-4.454l-.738 1.785c-.154.374-.434.561-.839.561h-.177l-.165-.07zm5.631-4.085l-1.485-3.57-1.477 3.57h2.962zM125.017.523c.251 0 .464.09.638.27.18.174.27.387.27.638V9.74h4.07c.25 0 .466.09.646.27a.869.869 0 0 1 .261.638.869.869 0 0 1-.261.639.883.883 0 0 1-.647.27h-4.976a.855.855 0 0 1-.639-.27.858.858 0 0 1-.27-.639V1.43c0-.25.09-.464.27-.638a.854.854 0 0 1 .638-.269zM134.762 11.554a.855.855 0 0 1-.639-.27.858.858 0 0 1-.27-.638V1.47c0-.251.09-.464.27-.639a.858.858 0 0 1 .639-.27c.25 0 .464.09.638.27.18.175.27.388.27.639v9.177c0 .252-.09.464-.27.639a.855.855 0 0 1-.638.27zM146.815 8.27c-.04.917-.408 1.695-1.1 2.33-.697.637-1.528.954-2.492.954-.836 0-1.585-.179-2.246-.538-.795-.43-1.3-1.057-1.515-1.877a.891.891 0 0 1 .092-.685.873.873 0 0 1 .553-.415c.241-.061.47-.03.685.092a.873.873 0 0 1 .415.554c.092.344.343.613.754.808.37.17.79.253 1.261.253a1.81 1.81 0 0 0 1.239-.453c.349-.298.533-.667.553-1.108a.954.954 0 0 0-.284-.715c-.318-.339-.852-.513-1.6-.524h-.039c-1.257-.02-2.218-.382-2.885-1.084-.548-.585-.804-1.264-.77-2.039.042-.923.409-1.702 1.1-2.338.693-.636 1.524-.954 2.493-.954.836 0 1.585.18 2.246.539.795.43 1.3 1.056 1.515 1.876a.87.87 0 0 1-.1.685.846.846 0 0 1-.546.415.891.891 0 0 1-.685-.092.873.873 0 0 1-.415-.553c-.092-.344-.346-.613-.762-.808a2.938 2.938 0 0 0-1.253-.254 1.84 1.84 0 0 0-1.247.454 1.523 1.523 0 0 0-.546 1.108.978.978 0 0 0 .285.723c.317.334.851.505 1.6.515h.038c1.257.021 2.219.385 2.885 1.092.55.58.807 1.259.771 2.039zM160.938.523a.89.89 0 0 1 .477.331c.123.159.185.34.185.546v9.246a.869.869 0 0 1-.262.639.883.883 0 0 1-.646.27.881.881 0 0 1-.646-.27.869.869 0 0 1-.262-.639V4.662l-2.87 4.738v.008l-.008.008-.008.008-.008.008a1.04 1.04 0 0 0-.03.054l-.023.03-.039.038-.03.03-.03.031a.405.405 0 0 1-.047.039l-.023.023a.413.413 0 0 1-.054.03c0 .005-.002.008-.008.008l-.008.008h-.008a.152.152 0 0 1-.053.03c-.021.011-.028.016-.023.016a.205.205 0 0 0-.047.015.836.836 0 0 1-.37.07h-.015c.01 0 0-.003-.03-.008a.883.883 0 0 1-.2-.039c-.026-.005-.036-.008-.03-.008.01.005 0 .003-.03-.008-.026-.01-.045-.017-.054-.023.004 0 0-.005-.016-.015a.401.401 0 0 1-.061-.03h-.008l-.008-.009-.008-.008a.204.204 0 0 1-.054-.038c0 .005-.008 0-.023-.015a.405.405 0 0 1-.046-.039l-.03-.03-.031-.03a.12.12 0 0 0-.039-.039c-.01-.015-.015-.025-.015-.03a.285.285 0 0 1-.038-.054l-.008-.008c0-.005-.003-.008-.008-.008v-.008c0-.005-.003-.008-.008-.008l-2.862-4.738v5.985c0 .25-.09.464-.27.638a.883.883 0 0 1-.646.27.855.855 0 0 1-.638-.27.858.858 0 0 1-.27-.638V1.4a.87.87 0 0 1 .185-.546.896.896 0 0 1 .485-.332.93.93 0 0 1 .577.03c.19.078.338.203.446.378l3.785 6.254L159.914.93a.876.876 0 0 1 .438-.377l.285-.108.301.078z"/>
    </g>
</svg>
